# xmcd
#
# Track frame offsets: 
#        150
#        16488
#        36283
#        58050
#        75398
#        92496
#        111953
#        130604
#        145790
#
# Disc length: 2109 seconds
#
# Revision: 0
# Processed by: cddbd v1.5.2PL0 Copyright (c) Steve Scherf et al.
# Submitted via: ExactAudioCopy v1.3
#
DISCID=6c083b09
DTITLE=Kaiser Blues Company - Suitcase (Black And Small)
DYEAR=2017
DGENRE=Blues
TTITLE0=It's Easy To Play Blues
TTITLE1=Brazil (Suitcase Black And Small)
TTITLE2=South East Life
TTITLE3=Businessman
TTITLE4=Keep On Drinkin'
TTITLE5=I Wish (You Were Here With Me Tonight)
TTITLE6=Some People Say That I Am Mad
TTITLE7=Bp Club After Midnight
TTITLE8=29 Ways
EXTD=
EXTT0=
EXTT1=
EXTT2=
EXTT3=
EXTT4=
EXTT5=
EXTT6=
EXTT7=
EXTT8=
PLAYORDER=
